<svg xmlns="http://www.w3.org/2000/svg" width="1280" height="720" viewBox="0 0 1280 720" role="img" aria-labelledby="title desc">
  <title id="title">Operating Signal YouTube thumbnail concept B</title>
  <desc id="desc">An acid green B2B video thumbnail built around a large dollar figure and a broken handoff diagram.</desc>
  <defs>
    <pattern id="dots" width="28" height="28" patternUnits="userSpaceOnUse"><circle cx="3" cy="3" r="2" fill="#08111f" fill-opacity=".11"/></pattern>
    <pattern id="wm" width="360" height="150" patternUnits="userSpaceOnUse" patternTransform="rotate(-18)"><text x="0" y="76" font-family="Arial" font-size="22" font-weight="700" fill="#08111f" fill-opacity=".1">PORTFOLIO SAMPLE</text></pattern>
  </defs>
  <rect width="1280" height="720" fill="#d7ff52"/>
  <rect width="1280" height="720" fill="url(#dots)"/>
  <path d="M860 0H1280V720H718Z" fill="#08111f"/>
  <rect x="54" y="49" width="356" height="48" rx="24" fill="#08111f"/>
  <path d="M82 73h15l8-11 9 22 8-11h24" fill="none" stroke="#d7ff52" stroke-width="4" stroke-linecap="round"/>
  <text x="163" y="81" font-family="Arial" font-size="21" font-weight="800" letter-spacing="3" fill="#fff">OPERATING SIGNAL</text>
  <text x="60" y="207" font-family="Arial" font-size="70" font-weight="900" letter-spacing="-2" fill="#08111f">THE</text>
  <text x="60" y="349" font-family="Arial" font-size="145" font-weight="900" letter-spacing="-9" fill="#ff4d66">$1M</text>
  <text x="60" y="451" font-family="Arial" font-size="91" font-weight="900" letter-spacing="-4" fill="#08111f">HANDOFF</text>
  <text x="60" y="548" font-family="Arial" font-size="91" font-weight="900" letter-spacing="-4" fill="#08111f">GAP</text>
  <rect x="60" y="585" width="570" height="3" fill="#08111f"/>
  <text x="60" y="630" font-family="Arial" font-size="22" font-weight="800" letter-spacing="2" fill="#08111f">WHY GOOD LEADS DISAPPEAR BETWEEN TEAMS</text>
  <g transform="translate(742 113)">
    <rect x="0" y="0" width="443" height="494" rx="36" fill="#111e31" stroke="#8af7d2" stroke-width="2"/>
    <text x="38" y="57" font-family="Arial" font-size="17" font-weight="700" letter-spacing="3" fill="#8af7d2">HANDOFF PATH / FAILURE 02</text>
    <g font-family="Arial" font-weight="900" font-size="19" text-anchor="middle">
      <rect x="38" y="96" width="132" height="72" rx="16" fill="#8af7d2"/><text x="104" y="140" fill="#08111f">MARKETING</text>
      <rect x="273" y="96" width="132" height="72" rx="16" fill="#fff"/><text x="339" y="140" fill="#08111f">SALES</text>
      <rect x="155" y="353" width="132" height="72" rx="16" fill="#ff4d66"/><text x="221" y="397" fill="#08111f">REVENUE</text>
    </g>
    <path d="M170 132h78" stroke="#fff" stroke-width="8" stroke-linecap="round" stroke-dasharray="16 18"/>
    <path d="M339 168 260 330M104 168l78 162" fill="none" stroke="#d7ff52" stroke-width="7" stroke-linecap="round"/>
    <circle cx="221" cy="132" r="30" fill="#ff4d66" stroke="#fff" stroke-width="5"/>
    <path d="m209 120 24 24m0-24-24 24" stroke="#08111f" stroke-width="7" stroke-linecap="round"/>
    <text x="221" y="286" font-family="Arial" font-size="20" font-weight="800" text-anchor="middle" letter-spacing="2" fill="#fff">OWNERSHIP MISSING</text>
    <text x="221" y="463" font-family="Arial" font-size="17" font-weight="700" text-anchor="middle" letter-spacing="2" fill="#91a1b7">EP 043 / FIELD NOTE</text>
  </g>
  <rect width="1280" height="720" fill="url(#wm)"/>
  <rect x="1000" y="653" width="239" height="38" rx="19" fill="#08111f" stroke="#fff" stroke-opacity=".55"/>
  <text x="1020" y="679" font-family="Arial" font-size="15" font-weight="800" letter-spacing="2" fill="#fff">NOT FOR PRODUCTION</text>
</svg>
